<?xml version="1.0" standalone="no"?>
<!DOCTYPE svg PUBLIC "-//W3C//DTD SVG 20010904//EN"
 "http://www.w3.org/TR/2001/REC-SVG-20010904/DTD/svg10.dtd">
<svg version="1.0" xmlns="http://www.w3.org/2000/svg"
 width="64.000000pt" height="64.000000pt" viewBox="0 0 64.000000 64.000000"
 preserveAspectRatio="xMidYMid meet">
<metadata>
Created by potrace 1.16, written by Peter Selinger 2001-2019
</metadata>
<g transform="translate(0.000000,64.000000) scale(0.100000,-0.100000)"
fill="#000000" stroke="none">
<path d="M302 580 c-11 -19 -14 -19 -41 -6 -27 15 -41 12 -41 -6 0 -5 11 -14
25 -20 26 -12 30 -24 16 -46 -7 -12 -14 -11 -38 2 -28 14 -43 13 -43 -4 0 -4
11 -12 25 -18 27 -13 32 -33 12 -51 -10 -8 -19 -7 -33 4 -10 8 -25 15 -31 15
-23 0 -14 -26 12 -38 27 -13 32 -33 12 -50 -8 -7 -18 -6 -31 4 -11 8 -26 14
-33 14 -22 0 -14 -26 12 -38 26 -12 31 -27 16 -51 -7 -11 -13 -11 -32 3 -29
20 -49 21 -49 2 0 -7 13 -19 29 -26 26 -10 28 -14 18 -31 -7 -12 -19 -18 -29
-14 -10 3 -27 8 -38 11 -33 10 -24 -22 10 -36 28 -12 29 -13 13 -36 -15 -24
-15 -24 16 -24 29 0 31 -2 31 -35 0 -19 5 -35 10 -35 6 0 10 16 10 35 0 32 2
35 30 35 28 0 30 -3 30 -35 0 -19 5 -35 10 -35 6 0 10 16 10 35 0 32 2 35 30
35 28 0 30 -3 30 -35 0 -19 5 -35 10 -35 6 0 10 16 10 35 0 32 2 35 30 35 28
0 30 -3 30 -35 0 -19 5 -35 10 -35 6 0 10 16 10 35 0 32 2 35 30 35 28 0 30
-3 30 -35 0 -19 5 -35 10 -35 6 0 10 16 10 35 0 32 2 35 30 35 28 0 30 -3 30
-35 0 -19 5 -35 10 -35 6 0 10 16 10 35 0 32 2 35 30 35 28 0 30 2 19 22 -10
18 -8 24 7 35 10 7 21 13 26 13 4 0 8 7 8 15 0 18 -11 19 -45 3 -22 -10 -28
-9 -36 3 -14 22 -11 28 16 41 14 6 25 17 25 25 0 18 -15 16 -46 -4 -22 -14
-27 -14 -35 -2 -15 24 -10 39 16 51 14 6 25 17 25 25 0 18 -15 16 -46 -4 -22
-14 -27 -14 -35 -2 -15 24 -10 39 16 51 14 6 25 17 25 25 0 17 -15 17 -45 -3
-22 -14 -24 -14 -35 6 -10 18 -8 24 7 36 10 7 21 14 26 14 8 0 10 30 2 30 -4
0 -20 -7 -37 -16 -25 -13 -32 -14 -39 -2 -14 22 -10 34 16 46 14 6 25 18 25
27 0 19 -4 19 -40 0 -28 -14 -30 -14 -42 5 -7 11 -15 20 -18 20 -3 0 -11 -9
-18 -20z m61 -128 c20 -37 64 -112 96 -167 l59 -100 -99 -3 c-54 -1 -144 -1
-198 0 l-99 3 59 100 c32 55 76 130 96 167 21 38 40 68 43 68 3 0 22 -30 43
-68z"/>
</g>
</svg>
