<svg width="512" height="512" xmlns="http://www.w3.org/2000/svg" xmlns:svg="http://www.w3.org/2000/svg">
 <g fill="#004d99" class="layer">
  <rect height="230" width="15" x="248.5" y="76"/>
  <rect height="55.5" width="21" x="245.5" y="27"/>
  <polygon points="188.5,276 256,333 323.5,276"/>
  <rect height="65.5" transform="matrix(1, 0, 0, 1, 0, 0)" width="22" x="188.5" y="252.25"/>
  <rect height="65.5" width="22" x="301.5" y="252.25"/>
  <rect height="22" width="65" x="223.5" y="311.5"/>
  <rect height="162" transform="matrix(0.707107, 0.707107, -0.707107, 0.707107, 123.216, -230.033)" width="8" x="445.15" y="301.1"/>
  <rect height="162" transform="matrix(1, 0, 0, 1, 0, 0) rotate(315, 17.5847, 186.098)" width="8" x="121.33" y="455.6"/>
  <rect height="17.5" width="17.5" x="108.75" y="402.25"/>
  <rect height="17.5" width="17.5" x="386.25" y="402.25"/>
 </g>
</svg>